<?xml version="1.0" standalone="no"?>
<!DOCTYPE svg PUBLIC "-//W3C//DTD SVG 20010904//EN"
 "http://www.w3.org/TR/2001/REC-SVG-20010904/DTD/svg10.dtd">
<svg version="1.0" xmlns="http://www.w3.org/2000/svg"
 width="997.000000pt" height="605.000000pt" viewBox="0 0 997.000000 605.000000"
 preserveAspectRatio="xMidYMid meet">

<g transform="translate(0.000000,605.000000) scale(0.100000,-0.100000)"
fill="#000000" stroke="none">
<path d="M2940 6035 c-6 -8 -10 -22 -8 -32 2 -9 137 -141 300 -293 l297 -275
-87 -85 c-48 -47 -183 -174 -300 -284 -122 -114 -212 -206 -212 -216 0 -10 6
-22 13 -28 8 -7 276 -6 872 3 473 8 861 12 864 10 2 -3 12 0 22 6 24 12 25 55
2 64 -10 3 -144 4 -298 1 -154 -3 -518 -8 -810 -11 l-530 -5 62 58 c322 300
493 467 493 481 0 14 -236 245 -497 485 -29 27 -53 53 -53 57 0 5 415 9 930 9
l930 0 0 -970 0 -970 -127 0 c-151 0 -402 -27 -608 -64 -698 -127 -1314 -427
-1712 -835 -66 -67 -103 -113 -103 -127 0 -11 13 -39 30 -62 97 -134 402 -270
830 -371 173 -40 481 -93 620 -106 36 -4 94 -10 130 -15 430 -60 1501 -60
1965 0 39 5 95 11 125 14 82 9 247 34 403 62 542 98 973 279 1057 445 34 65
28 78 -69 176 -505 510 -1383 850 -2271 881 l-195 7 -3 994 c-2 781 -5 997
-15 1003 -6 4 -467 8 -1023 8 -872 0 -1013 -2 -1024 -15z m1990 -2234 c0 -93
3 -176 6 -185 4 -10 18 -16 35 -16 l29 0 0 187 0 186 173 -6 c166 -6 364 -25
484 -46 32 -6 74 -13 93 -16 131 -21 411 -92 560 -143 270 -92 573 -242 785
-390 159 -110 385 -309 385 -339 0 -47 -123 -144 -266 -209 -207 -94 -647
-210 -944 -249 -25 -3 -72 -10 -105 -15 -166 -26 -595 -60 -879 -70 -434 -15
-841 -1 -1321 46 -43 4 -186 23 -305 41 -19 2 -107 18 -195 34 -446 83 -817
217 -954 345 l-56 53 65 66 c459 472 1222 801 2030 875 69 6 134 13 145 14 11
2 68 4 128 5 l107 1 0 -169z"/>
<path d="M1949 2890 c-1122 -189 -1776 -438 -1923 -732 -36 -72 -37 -180 -1
-255 116 -250 656 -488 1494 -658 153 -31 396 -73 521 -90 25 -3 92 -12 150
-20 353 -49 886 -104 1215 -125 521 -34 554 -35 1148 -51 409 -11 842 -6 1452
17 543 20 1563 109 1880 164 28 5 70 12 95 15 352 48 886 170 1198 274 438
145 681 291 766 460 22 42 26 64 26 134 0 69 -4 92 -26 135 -123 247 -656 477
-1511 652 -230 47 -601 109 -698 117 -69 5 -71 5 -83 -21 -19 -43 -98 -121
-170 -170 -212 -143 -520 -248 -987 -335 -233 -43 -428 -68 -745 -95 -449 -39
-1128 -39 -1560 0 -260 23 -269 24 -390 40 -787 103 -1313 289 -1498 527 -55
70 -41 69 -353 17z m446 -205 c190 -135 608 -283 985 -348 72 -13 226 -38 310
-51 117 -19 450 -53 585 -61 367 -21 477 -25 695 -25 218 0 364 6 705 26 495
29 1044 124 1408 245 275 91 442 184 565 314 l71 74 53 -9 c29 -5 73 -12 98
-15 136 -18 574 -99 705 -130 376 -89 580 -149 780 -230 321 -129 511 -270
545 -407 10 -38 9 -56 -5 -104 -33 -113 -200 -246 -449 -356 -251 -112 -795
-264 -1147 -323 -19 -3 -68 -12 -109 -20 -391 -75 -1199 -163 -1795 -195 -104
-6 -266 -15 -360 -21 -202 -13 -1639 -19 -1875 -8 -484 22 -898 50 -1245 84
-82 9 -172 17 -200 20 -66 6 -284 32 -415 50 -58 8 -125 17 -150 20 -796 101
-1541 312 -1870 530 -78 52 -175 151 -195 199 -22 51 -19 132 6 182 75 157
413 340 871 473 301 88 830 199 1123 237 28 3 68 9 90 13 39 6 41 5 99 -57 33
-35 87 -83 121 -107z"/>
<path d="M2490 939 c-13 -24 -8 -33 60 -98 327 -313 863 -585 1415 -716 137
-33 326 -69 415 -80 403 -49 864 -49 1215 0 464 65 954 223 1302 418 208 117
455 297 551 401 36 39 41 49 32 66 -12 23 -34 25 -159 10 -361 -41 -974 -85
-1546 -110 -280 -12 -1255 -12 -1530 0 -450 20 -691 35 -1080 65 -122 10 -394
36 -515 51 -157 18 -147 18 -160 -7z m360 -88 c203 -22 470 -43 825 -66 762
-50 1889 -50 2661 0 421 27 893 67 967 81 15 3 27 1 27 -4 0 -13 -187 -158
-290 -225 -386 -250 -863 -425 -1375 -506 -422 -66 -928 -68 -1310 -6 -49 8
-108 17 -130 20 -71 11 -257 54 -390 91 -401 111 -855 339 -1129 568 -50 43
-71 66 -60 66 11 0 102 -9 204 -19z"/>
</g>
</svg>
